<svg width="1471" height="1476" xmlns="http://www.w3.org/2000/svg" xmlns:xlink="http://www.w3.org/1999/xlink" xml:space="preserve" overflow="hidden"><defs><linearGradient x1="3340" y1="517" x2="3340" y2="1958" gradientUnits="userSpaceOnUse" spreadMethod="reflect" id="fill0"><stop offset="0" stop-color="#FEF8F5" stop-opacity="1"/><stop offset="0.74" stop-color="#F7C4A2" stop-opacity="1"/><stop offset="0.83" stop-color="#F7C4A2" stop-opacity="1"/><stop offset="1" stop-color="#FAD8C1" stop-opacity="1"/></linearGradient></defs><g transform="translate(-2603 -499)"><g><path d="M2620 1237.5C2620 839.579 2942.35 517 3340 517 3737.65 517 4060 839.579 4060 1237.5 4060 1635.42 3737.65 1958 3340 1958 2942.35 1958 2620 1635.42 2620 1237.5Z" stroke="#ED7D31" stroke-width="27.5" stroke-linecap="butt" stroke-linejoin="miter" stroke-miterlimit="8" stroke-opacity="1" fill="url(#fill0)" fill-rule="evenodd"/><path d="M2716 1237.5C2716 897.569 2995.37 622 3340 622 3684.63 622 3964 897.569 3964 1237.5 3964 1577.43 3684.63 1853 3340 1853 2995.37 1853 2716 1577.43 2716 1237.5Z" stroke="#ED7D31" stroke-width="27.5" stroke-linecap="butt" stroke-linejoin="miter" stroke-miterlimit="8" stroke-opacity="1" fill="#FBE5D6" fill-rule="evenodd" fill-opacity="1"/><g><g><g><path d="M3606.17 916.083C3604.02 916.083 3600.78 916.083 3598.62 917.162L2912.27 1145.95C2902.56 1149.18 2896.08 1157.82 2896.08 1167.53 2896.08 1177.24 2902.56 1185.87 2912.27 1189.11L3238.18 1306.74 3355.81 1632.65C3359.05 1642.36 3367.68 1648.84 3377.39 1648.84 3387.1 1648.84 3395.74 1642.36 3398.97 1632.65L3627.76 945.221C3629.92 937.667 3628.84 930.112 3624.52 924.716 3621.28 920.4 3614.81 916.083 3606.17 916.083ZM3541.42 1004.57 3376.31 1499.91 3299.69 1286.24 3288.9 1257.1 3259.76 1246.31 3046.09 1169.69 3541.42 1004.57" stroke="#FF0000" stroke-width="54.0407" stroke-linecap="butt" stroke-linejoin="miter" stroke-miterlimit="4" stroke-opacity="1" fill="#ED7D31" fill-rule="nonzero" fill-opacity="0.9"/></g></g></g></g></g></svg>